<svg id="visual" viewBox="0 0 960 200" width="960" height="200" xmlns="http://www.w3.org/2000/svg" xmlns:xlink="http://www.w3.org/1999/xlink" version="1.1"><rect x="0" y="0" width="960" height="200" fill="#000"></rect><path d="M0 53L40 49.8C80 46.7 160 40.3 240 44C320 47.7 400 61.3 480 61.8C560 62.3 640 49.7 720 47.7C800 45.7 880 54.3 920 58.7L960 63L960 201L920 201C880 201 800 201 720 201C640 201 560 201 480 201C400 201 320 201 240 201C160 201 80 201 40 201L0 201Z" fill="#311d3f"></path><path d="M0 60L40 68.3C80 76.7 160 93.3 240 95.3C320 97.3 400 84.7 480 76.5C560 68.3 640 64.7 720 64.2C800 63.7 880 66.3 920 67.7L960 69L960 201L920 201C880 201 800 201 720 201C640 201 560 201 480 201C400 201 320 201 240 201C160 201 80 201 40 201L0 201Z" fill="#522451"></path><path d="M0 122L40 118.3C80 114.7 160 107.3 240 106.3C320 105.3 400 110.7 480 114C560 117.3 640 118.7 720 116C800 113.3 880 106.7 920 103.3L960 100L960 201L920 201C880 201 800 201 720 201C640 201 560 201 480 201C400 201 320 201 240 201C160 201 80 201 40 201L0 201Z" fill="#77285c"></path><path d="M0 137L40 138.5C80 140 160 143 240 141.8C320 140.7 400 135.3 480 135C560 134.7 640 139.3 720 140C800 140.7 880 137.3 920 135.7L960 134L960 201L920 201C880 201 800 201 720 201C640 201 560 201 480 201C400 201 320 201 240 201C160 201 80 201 40 201L0 201Z" fill="#9d2a60"></path><path d="M0 162L40 157.3C80 152.7 160 143.3 240 141C320 138.7 400 143.3 480 147.8C560 152.3 640 156.7 720 155.8C800 155 880 149 920 146L960 143L960 201L920 201C880 201 800 201 720 201C640 201 560 201 480 201C400 201 320 201 240 201C160 201 80 201 40 201L0 201Z" fill="#c1305d"></path><path d="M0 157L40 158C80 159 160 161 240 163.3C320 165.7 400 168.3 480 171C560 173.7 640 176.3 720 174C800 171.7 880 164.3 920 160.7L960 157L960 201L920 201C880 201 800 201 720 201C640 201 560 201 480 201C400 201 320 201 240 201C160 201 80 201 40 201L0 201Z" fill="#e23e53"></path></svg>