<svg id="visual" viewBox="0 0 960 200" width="960" height="200" xmlns="http://www.w3.org/2000/svg" xmlns:xlink="http://www.w3.org/1999/xlink" version="1.1"><rect x="0" y="0" width="960" height="200" fill="#000"></rect><path d="M0 118L40 123.7C80 129.3 160 140.7 240 145C320 149.3 400 146.7 480 144.2C560 141.7 640 139.3 720 136.8C800 134.3 880 131.7 920 130.3L960 129L960 0L920 0C880 0 800 0 720 0C640 0 560 0 480 0C400 0 320 0 240 0C160 0 80 0 40 0L0 0Z" fill="#311d3f"></path><path d="M0 110L40 112.7C80 115.3 160 120.7 240 120.2C320 119.7 400 113.3 480 110.2C560 107 640 107 720 112.7C800 118.3 880 129.7 920 135.3L960 141L960 0L920 0C880 0 800 0 720 0C640 0 560 0 480 0C400 0 320 0 240 0C160 0 80 0 40 0L0 0Z" fill="#522451"></path><path d="M0 81L40 81.5C80 82 160 83 240 82.5C320 82 400 80 480 78.5C560 77 640 76 720 77.5C800 79 880 83 920 85L960 87L960 0L920 0C880 0 800 0 720 0C640 0 560 0 480 0C400 0 320 0 240 0C160 0 80 0 40 0L0 0Z" fill="#77285c"></path><path d="M0 61L40 63.8C80 66.7 160 72.3 240 73.2C320 74 400 70 480 67.3C560 64.7 640 63.3 720 64.7C800 66 880 70 920 72L960 74L960 0L920 0C880 0 800 0 720 0C640 0 560 0 480 0C400 0 320 0 240 0C160 0 80 0 40 0L0 0Z" fill="#9d2a60"></path><path d="M0 37L40 37C80 37 160 37 240 37.8C320 38.7 400 40.3 480 42.2C560 44 640 46 720 48C800 50 880 52 920 53L960 54L960 0L920 0C880 0 800 0 720 0C640 0 560 0 480 0C400 0 320 0 240 0C160 0 80 0 40 0L0 0Z" fill="#c1305d"></path><path d="M0 28L40 26.8C80 25.7 160 23.3 240 21.7C320 20 400 19 480 22.2C560 25.3 640 32.7 720 36.2C800 39.7 880 39.3 920 39.2L960 39L960 0L920 0C880 0 800 0 720 0C640 0 560 0 480 0C400 0 320 0 240 0C160 0 80 0 40 0L0 0Z" fill="#e23e53"></path></svg>